# xmcd
#
# Track frame offsets:
#	150
#	20151
#	37949
#	61874
#	79663
#	99914
#	116821
#	130281
#	146148
#	163435
#	183436
#	201234
#	225159
#	242948
#	263199
#	280106
#	293566
#	309433
#
# Disc length: 4356 seconds
#
# Revision: 1
# Processed by: cddbd v1.5.2PL0 Copyright (c) Steve Scherf et al.
# Submitted via: audiograbber 1.83.01
#
DISCID=01110212
DTITLE=Various Artist - PHM20803-@
DYEAR=2008
DGENRE=karaoke
TTITLE0=Small Town Southern Man - Alan jackson
TTITLE1=God Must Be Busy - Brooks and Dunn
TTITLE2=Suspicions - Tim McGraw
TTITLE3=Cleaning This Gun - Rodney Atkins
TTITLE4=Shifwork - Kenny Chesney/George Strait
TTITLE5=We Weren't Crazy - Josh Gracin
TTITLE6=Maybe She'll Get Lonely - jack Ingram
TTITLE7=April Showers - Sugarland
TTITLE8=These Are The Days - Sugarland
TTITLE9=Small Town Southern Man - Alan Jackson (vocal)
TTITLE10=God Must Be Busy - Brooks and Dunn (vocal)
TTITLE11=Suspicions - Tim McGraw (vocal)
TTITLE12=Cleaning This Gun - Rodney Atkins (vocal)
TTITLE13=Shiftwork - Kenny Chesney/George Strait (vocal)
TTITLE14=We Were'nt Crazy - Josh Gracin (vocal)
TTITLE15=Maybe She'll Get Lonely - Jack Ingram (vocal)
TTITLE16=April Showers - Sugarland (vocal)
TTITLE17=These Are The Days - Sugarland (vocal)
EXTD=
EXTT0=
EXTT1=
EXTT2=
EXTT3=
EXTT4=
EXTT5=
EXTT6=
EXTT7=
EXTT8=
EXTT9=
EXTT10=
EXTT11=
EXTT12=
EXTT13=
EXTT14=
EXTT15=
EXTT16=
EXTT17=
PLAYORDER=
